<svg xmlns="http://www.w3.org/2000/svg" version="1.1" xmlns:xlink="http://www.w3.org/1999/xlink" xmlns:svgjs="http://svgjs.com/svgjs" x="0" y="0" viewBox="0 0 480.4 500.6" style="enable-background:new 0 0 512 512" xml:space="preserve" class=""><g><g id="Layer_33"><g><path d="m441.2 284.2h-441.2v-37.9l220.6-90.2 220.6 90.2z" fill="#0a9bd8" data-original="#0a9bd8"/><path d="m441.2 246.3v37.9h-214.8c49.3-17.1 88.2-46.1 108.6-81.3z" fill="#158db7" data-original="#158db7"/><path d="m425.1 468.5v-34.3h-409v34.3" fill="#01c6e1" data-original="#01c6e1"/><path d="m425.1 434.2v30.2h-109.7c12.1-9.3 23.5-19.4 34.2-30.2z" fill="#04aeb2" data-original="#04aeb2"/><path d="m0 464.4h441.2v36.1h-441.2z" fill="#0a9bd8" data-original="#0a9bd8"/><path d="m441.2 464.4v36.2h-183.7c18.6-9.2 41.5-24.1 57.9-36.2z" fill="#158db7" data-original="#158db7"/><path d="m350.6 284.2h71.8v25.3h-71.8z" fill="#01c6e1" data-original="#01c6e1"/><path d="m366.7 309.4h39.6v124.8h-39.6z" fill="#0a9bd8" data-original="#0a9bd8"/><path d="m240.3 284.2h71.8v25.3h-71.8z" fill="#01c6e1" data-original="#01c6e1"/><path d="m256.4 309.4h39.6v124.8h-39.6z" fill="#0a9bd8" data-original="#0a9bd8"/><path d="m129.5 284.2h71.8v25.3h-71.8z" fill="#01c6e1" data-original="#01c6e1"/><path d="m145.6 309.4h39.6v124.8h-39.6z" fill="#0a9bd8" data-original="#0a9bd8"/><path d="m18.7 284.2h71.8v25.3h-71.8z" fill="#01c6e1" data-original="#01c6e1"/><path d="m34.8 309.4h39.6v124.8h-39.6z" fill="#0a9bd8" data-original="#0a9bd8"/><path d="m426.8 132.9h-20.2s-15.3 15.3-37.7 15.3l-197.9-31c-5.2-.6-10-3.2-13.5-7.1l-.2-.3c-9-10.1-7.7-26.2 2.7-34.5l78-71.3c3.3-2.6 7.4-4 11.6-4h177.2" fill="#efcdb1" data-original="#efcdb1"/><path d="m426.8-.1h53.7v132.9h-53.7z" fill="#f04930" data-original="#f04930"/><path d="m447.6 107.5h12v12.3h-12z" fill="#d1d3d4" data-original="#d1d3d4"/><path d="m386.7 90v163.6h-322.3c-1.6 0-2.9-1.3-2.9-2.9v-160.7c0-1.6 1.3-2.9 2.9-2.9h319.4c1.6 0 2.9 1.3 2.9 2.9z" fill="#8dc63f" data-original="#8dc63f"/><g fill="#d1d3d4"><path d="m386.7 145.3v-58.2h-68.7c0 32.6 26.4 59 59 59h.1c3.2 0 6.4-.2 9.6-.8z" fill="#d1d3d4" data-original="#d1d3d4"/><path d="m386.7 195.3v58.2h-68.7c0-32.6 26.4-59 59-59h.1c3.2 0 6.4.2 9.6.8z" fill="#d1d3d4" data-original="#d1d3d4"/><path d="m127.9 253.6c0-32.6-26.4-59-59-59.1-2.5 0-4.9.2-7.4.5v58.6z" fill="#d1d3d4" data-original="#d1d3d4"/><path d="m118.3 87.1h-56.8v59c31.7-1.2 56.8-27.3 56.8-59z" fill="#d1d3d4" data-original="#d1d3d4"/><path d="m179.7 176.7h-30.3v-12h30.3zm5-32h-20.1v12h20.1zm-1 40h-20.1v12h20.1zm124.7-20h-37.6v12h37.6zm-18.8-20h-25v12h25zm1.2 40h-24.9v12h24.9z" fill="#d1d3d4" data-original="#d1d3d4"/></g><ellipse cx="224.9" cy="170.7" fill="#feba26" rx="50.5" ry="59.4" data-original="#feba26"/><path d="m409.7 95.8c-10.2 9.3-26.2 25.9-64.2 21.9-22.2-2.4-49.1-20.3-49.1-20.3l-64.4 14.2c-11.8 2.8-23.4-4.8-26-17.1-2.7-12.3 4.6-24.7 16.2-28l71.6-22.5s14-15 39.2-13.9" fill="#efcdb1" data-original="#efcdb1"/><path d="m298.2 48.1c-.7.7-1.6 1.3-2.5 1.6l-71.9 22.6c-5.3 1.6-9.4 5.6-11.2 10.8-.9 2.3-3.1 3.9-5.6 4h-.3c-3.3-.1-6-2.8-5.9-6.1 0-.6.1-1.2.3-1.8 3.1-8.9 10.3-15.8 19.4-18.4l69-21.8c.8-.2 1.5-.6 2.1-1.1 9.9-8.3 22.3-13.2 35.2-13.8 3.3-.1 6.1 2.5 6.2 5.8v.4.2c-.1 3-2.5 5.4-5.5 5.6-18.8 1-29.2 11.8-29.3 12z" fill="#d8b49a" data-original="#d8b49a"/><path d="m412.4 98.8c.7.7.8 1.9 0 2.7 0 0-.1.1-.1.1-9.5 8.7-24.7 22.7-55.5 22.7-4 0-8-.2-11.9-.7-19.1-2-40.7-14.3-48.7-19.2-.5-.4-.8-1.1-.7-1.8l1.7-9.1c.1-.9.9-1.5 1.8-1.4.3 0 .5.1.7.3.3.2 26 17.1 46.4 19.3 33.6 3.6 48.3-10 58.1-18.9.8-.8 2.1-.8 2.8 0 0 0 0 .1.1.1z" fill="#d8b49a" data-original="#d8b49a"/></g></g><text transform="translate(960 540)" svgjs:data="{&quot;leading&quot;:&quot;1.3&quot;}"><tspan font-family="'MicrosoftSansSerif'" font-size="12" x="0" y="0" svgjs:data="{&quot;leading&quot;:&quot;1.3&quot;}">โอ๋</tspan><tspan font-family="'MyriadPro-Regular'" font-size="12" x="11.3" y="0" svgjs:data="{&quot;leading&quot;:&quot;1.3&quot;}"> Superglue</tspan></text></g></svg>